<svg width="36" height="35" viewBox="0 0 36 35" fill="none" xmlns="http://www.w3.org/2000/svg">
<path d="M18.7334 17.8186C23.4341 17.8186 27.2449 13.8297 27.2449 8.90928C27.2449 3.98882 23.4341 0 18.7334 0C14.0326 0 10.2219 3.98882 10.2219 8.90928C10.2219 13.8297 14.0326 17.8186 18.7334 17.8186Z" fill="#1B3C53"/>
<path d="M34.8421 31.0219C34.8421 30.9424 34.8023 30.8629 34.8023 30.7833C34.683 30.2265 34.4046 29.7492 34.0466 29.3515C33.6091 28.9139 33.0921 28.556 32.4557 28.3969C32.2171 28.3173 31.9387 28.2776 31.6602 28.2776C29.8704 28.2776 28.3988 29.7492 28.3988 31.539C28.3988 33.3288 29.8704 34.8004 31.6602 34.8004C33.45 34.8004 34.9217 33.3288 34.9217 31.539C34.9217 31.3799 34.8819 31.2208 34.8421 31.0219ZM8.31336 28.3173C8.31336 26.5275 6.84175 25.0559 5.05195 25.0559H4.61445C4.5349 25.0559 4.45536 25.0957 4.37581 25.0957C4.33604 25.0957 4.33604 25.0957 4.29626 25.1355C4.21672 25.1355 4.13717 25.1752 4.05762 25.215C4.01785 25.215 4.01785 25.215 4.01785 25.2548C3.9383 25.2945 3.85876 25.3343 3.77921 25.3343H3.73944C3.65989 25.3741 3.58034 25.4139 3.46102 25.4536C3.38148 25.4934 3.30193 25.573 3.18261 25.6127C3.02352 25.7321 2.82465 25.8912 2.70533 26.0502C2.14851 26.6469 1.83032 27.4025 1.83032 28.2776C1.83032 30.0674 3.30193 31.539 5.09173 31.539C6.88152 31.539 8.31336 30.1072 8.31336 28.3173Z" fill="#1B3C53"/>
<path d="M35.7961 28.9942C34.8018 20.9997 24.421 18.4144 23.188 18.136L18.8528 21.5566L14.5175 18.136C13.6027 18.3349 7.7958 19.7667 4.3753 23.6646L1.47185 13.4427L0.000244141 13.8405L2.98324 24.4998C3.57983 24.1816 4.29575 23.9827 5.05144 23.9827C7.43784 23.9827 9.38672 25.9317 9.38672 28.3181C9.38672 30.5056 7.75602 32.2954 5.68781 32.6136C7.47761 33.3693 9.94355 34.125 13.205 34.5625V24.2214C13.205 24.2214 18.5743 24.2214 22.2732 26.6476L22.313 35H23.3869L23.3471 26.6476C27.046 24.2214 32.4154 24.2214 32.4154 24.2214V27.3237C33.887 27.6021 35.0802 28.5965 35.6371 29.9488C35.7961 29.6306 35.8359 29.3124 35.7961 28.9942Z" fill="#1B3C53"/>
</svg>
