<svg width="35" height="35" viewBox="0 0 35 35" fill="none" xmlns="http://www.w3.org/2000/svg">
<path d="M27.5627 30.625H2.18752C1.60735 30.625 1.05095 30.8554 0.640709 31.2657C0.23047 31.6759 0 32.2323 0 32.8125C0 33.3926 0.23047 33.949 0.640709 34.3593C1.05095 34.7695 1.60735 35 2.18752 35H27.5627C28.1429 35 28.6993 34.7695 29.1095 34.3593C29.5198 33.949 29.7502 33.3926 29.7502 32.8125C29.7502 32.2323 29.5198 31.6759 29.1095 31.2657C28.6993 30.8554 28.1429 30.625 27.5627 30.625ZM27.5627 28.8749C27.7093 28.8813 27.8554 28.8962 28.0002 28.9195V20.5322C27.8467 20.5958 27.6963 20.6682 27.5396 20.7239V21.2998C27.5388 21.9159 27.2938 22.5066 26.8583 22.9424C26.4227 23.3782 25.8322 23.6236 25.2161 23.6249H22.9093C22.2929 23.6241 21.7019 23.3788 21.2661 22.943C20.8302 22.5071 20.585 21.9162 20.5841 21.2998V20.7239C20.2494 20.605 19.9212 20.4685 19.6009 20.315L19.1929 20.7231C18.9769 20.9391 18.7204 21.1106 18.4382 21.2275C18.1559 21.3445 17.8534 21.4046 17.5479 21.4046C17.2423 21.4046 16.9398 21.3445 16.6575 21.2275C16.3753 21.1106 16.1188 20.9391 15.9028 20.7231L14.2777 19.0908C14.0615 18.875 13.8899 18.6186 13.7729 18.3364C13.6558 18.0542 13.5955 17.7517 13.5955 17.4462C13.5955 17.1406 13.6558 16.8381 13.7729 16.5559C13.8899 16.2737 14.0615 16.0174 14.2777 15.8015L14.6842 15.3943C14.5309 15.0739 14.3944 14.7457 14.2753 14.4111H13.6994C13.269 14.4091 12.8476 14.2875 12.4824 14.0598C12.1172 13.8321 11.8224 13.5072 11.6312 13.1216H3.50003C3.03589 13.1216 2.59077 13.306 2.26258 13.6342C1.93439 13.9624 1.75001 14.4075 1.75001 14.8717V28.9195C1.89486 28.8962 2.04094 28.8813 2.18752 28.8749H27.5627Z" fill="#1B3C53"/>
<path d="M34.4243 9.21064H32.862C32.7644 9.21003 32.6699 9.17647 32.5938 9.11538C32.5177 9.0543 32.4645 8.96929 32.4428 8.87416C32.2349 8.02692 31.899 7.21631 31.4468 6.47028C31.3951 6.38768 31.3728 6.29004 31.3835 6.19316C31.3942 6.09629 31.4372 6.00586 31.5057 5.93652L32.6138 4.83163C32.6673 4.77827 32.7098 4.71486 32.7388 4.64504C32.7678 4.57521 32.7828 4.50035 32.7828 4.42475C32.7828 4.34914 32.7678 4.27428 32.7388 4.20446C32.7098 4.13464 32.6673 4.07123 32.6138 4.01787L30.9823 2.38638C30.9289 2.33282 30.8655 2.29032 30.7957 2.26132C30.7259 2.23232 30.651 2.21739 30.5754 2.21739C30.4998 2.21739 30.4249 2.23232 30.3551 2.26132C30.2853 2.29032 30.2219 2.33282 30.1685 2.38638L29.0621 3.50003C28.9927 3.56851 28.9023 3.61158 28.8054 3.62227C28.7085 3.63295 28.6109 3.61062 28.5283 3.55889C27.7831 3.10397 26.9727 2.7657 26.1252 2.55581C26.0303 2.53383 25.9455 2.4805 25.8846 2.40445C25.8237 2.32839 25.7902 2.23404 25.7895 2.13661V0.575914C25.7895 0.423584 25.7292 0.277459 25.6217 0.169522C25.5142 0.061586 25.3683 0.000631198 25.216 0H22.9092C22.7564 0 22.6099 0.0606765 22.5019 0.168681C22.3939 0.276686 22.3333 0.423172 22.3333 0.575914V2.13263C22.3327 2.23 22.2992 2.32431 22.2382 2.40026C22.1773 2.47621 22.0925 2.52935 21.9976 2.55104C21.1492 2.76009 20.3377 3.09755 19.5913 3.55173C19.5087 3.60364 19.4109 3.626 19.314 3.61517C19.217 3.60433 19.1266 3.56093 19.0575 3.49207L17.9566 2.38638C17.9033 2.33282 17.8399 2.29032 17.77 2.26132C17.7002 2.23232 17.6254 2.21739 17.5497 2.21739C17.4741 2.21739 17.3993 2.23232 17.3295 2.26132C17.2596 2.29032 17.1962 2.33282 17.1429 2.38638L15.5114 4.01787C15.4578 4.07123 15.4153 4.13464 15.3863 4.20446C15.3573 4.27428 15.3424 4.34914 15.3424 4.42475C15.3424 4.50035 15.3573 4.57521 15.3863 4.64504C15.4153 4.71486 15.4578 4.77827 15.5114 4.83163L16.6147 5.93493C16.6832 6.00427 16.7262 6.0947 16.7369 6.19157C16.7476 6.28844 16.7253 6.38609 16.6735 6.46869C16.2218 7.21569 15.8862 8.02706 15.6784 8.87495C15.6567 8.96988 15.6036 9.05469 15.5276 9.11562C15.4517 9.17655 15.3574 9.21004 15.26 9.21064H13.7009C13.5486 9.21064 13.4025 9.27099 13.2945 9.37848C13.1866 9.48596 13.1256 9.63184 13.125 9.78417V12.091C13.125 12.1666 13.1399 12.2415 13.1688 12.3114C13.1978 12.3813 13.2402 12.4448 13.2937 12.4982C13.3472 12.5517 13.4106 12.5941 13.4805 12.6231C13.5504 12.652 13.6253 12.6669 13.7009 12.6669H15.2576C15.355 12.6675 15.4493 12.701 15.5253 12.7619C15.6012 12.8229 15.6543 12.9077 15.676 13.0026C15.8851 13.851 16.2225 14.6624 16.6767 15.4089C16.7285 15.4915 16.7508 15.5891 16.7401 15.686C16.7294 15.7829 16.6864 15.8733 16.6179 15.9426L15.5114 17.0435C15.4578 17.0969 15.4153 17.1603 15.3863 17.2301C15.3573 17.3 15.3424 17.3748 15.3424 17.4504C15.3424 17.526 15.3573 17.6009 15.3863 17.6707C15.4153 17.7405 15.4578 17.8039 15.5114 17.8573L17.1429 19.4888C17.1962 19.5423 17.2596 19.5848 17.3295 19.6138C17.3993 19.6428 17.4741 19.6578 17.5497 19.6578C17.6254 19.6578 17.7002 19.6428 17.77 19.6138C17.8399 19.5848 17.9033 19.5423 17.9566 19.4888L19.0599 18.3855C19.1293 18.317 19.2197 18.2739 19.3166 18.2632C19.4134 18.2526 19.5111 18.2749 19.5937 18.3266C20.3401 18.7808 21.1516 19.1183 22 19.3273C22.0949 19.349 22.1797 19.4021 22.2406 19.4781C22.3016 19.554 22.335 19.6483 22.3356 19.7457V21.3024C22.3365 21.4542 22.3972 21.5995 22.5046 21.7068C22.612 21.814 22.7574 21.8745 22.9092 21.8752H25.216C25.3687 21.8752 25.5152 21.8145 25.6232 21.7065C25.7312 21.5985 25.7919 21.452 25.7919 21.2993V19.7425C25.7925 19.6452 25.826 19.5509 25.8869 19.4749C25.9479 19.399 26.0327 19.3458 26.1276 19.3241C26.976 19.1151 27.7874 18.7776 28.5339 18.3234C28.6165 18.2717 28.7141 18.2494 28.811 18.2601C28.9079 18.2707 28.9983 18.3138 29.0676 18.3823L30.1685 19.4888C30.2219 19.5423 30.2853 19.5848 30.3551 19.6138C30.4249 19.6428 30.4998 19.6578 30.5754 19.6578C30.651 19.6578 30.7259 19.6428 30.7957 19.6138C30.8655 19.5848 30.9289 19.5423 30.9823 19.4888L32.6138 17.8573C32.6673 17.8039 32.7098 17.7405 32.7388 17.6707C32.7678 17.6009 32.7828 17.526 32.7828 17.4504C32.7828 17.3748 32.7678 17.3 32.7388 17.2301C32.7098 17.1603 32.6673 17.0969 32.6138 17.0435L31.5105 15.9402C31.442 15.8709 31.3989 15.7805 31.3882 15.6836C31.3776 15.5867 31.3999 15.4891 31.4516 15.4065C31.9058 14.66 32.2433 13.8486 32.4523 13.0002C32.474 12.9053 32.5271 12.8205 32.6031 12.7595C32.679 12.6986 32.7733 12.6651 32.8707 12.6645H34.4274C34.5792 12.6637 34.7245 12.603 34.8318 12.4956C34.939 12.3882 34.9995 12.2428 35.0002 12.091V9.78417C34.9995 9.63184 34.9386 9.48596 34.8306 9.37848C34.7227 9.27099 34.5766 9.21064 34.4243 9.21064ZM24.0626 15.7501C23.1108 15.7501 22.1803 15.4679 21.3889 14.9391C20.5975 14.4103 19.9806 13.6586 19.6164 12.7793C19.2521 11.8999 19.1568 10.9322 19.3425 9.9987C19.5282 9.06516 19.9866 8.20765 20.6596 7.53461C21.3327 6.86156 22.1902 6.40321 23.1237 6.21752C24.0572 6.03183 25.0249 6.12713 25.9043 6.49138C26.7836 6.85563 27.5353 7.47246 28.0641 8.26388C28.5929 9.0553 28.8751 9.98575 28.8751 10.9376C28.8751 12.2139 28.3681 13.438 27.4656 14.3406C26.563 15.2431 25.3389 15.7501 24.0626 15.7501Z" fill="#1B3C53"/>
</svg>
