<svg width="35" height="35" viewBox="0 0 35 35" fill="none" xmlns="http://www.w3.org/2000/svg">
<path d="M3.5 35C2.5375 35 1.71383 34.6576 1.029 33.9727C0.344167 33.2879 0.00116667 32.4637 0 31.5V10.5C0 9.5375 0.343 8.71383 1.029 8.029C1.715 7.34417 2.53867 7.00117 3.5 7H10.5V3.5C10.5 2.5375 10.843 1.71383 11.529 1.029C12.215 0.344167 13.0387 0.00116667 14 0H21C21.9625 0 22.7867 0.343 23.4727 1.029C24.1587 1.715 24.5012 2.53867 24.5 3.5V7H31.5C32.4625 7 33.2867 7.343 33.9727 8.029C34.6587 8.715 35.0012 9.53867 35 10.5V31.5C35 32.4625 34.6576 33.2867 33.9727 33.9727C33.2879 34.6587 32.4637 35.0012 31.5 35H3.5ZM14 7H21V3.5H14V7ZM15.75 22.75V28H19.25V22.75H24.5V19.25H19.25V14H15.75V19.25H10.5V22.75H15.75Z" fill="#1B3C53"/>
</svg>
