<svg width="35" height="35" viewBox="0 0 35 35" fill="none" xmlns="http://www.w3.org/2000/svg">
<path d="M10.9095 12.0085C14.2202 12.0085 16.9137 9.31499 16.9137 6.00428C16.9137 2.6935 14.2202 0 10.9095 0C7.59877 0 4.90527 2.6935 4.90527 6.00421C4.90527 9.31499 7.59877 12.0085 10.9095 12.0085ZM22.9908 18.5254H26.3587V20.8681H16.4008C15.8348 20.8681 15.3754 21.3268 15.3754 21.8935V26.3594H32.8029V21.8935C32.8029 21.3268 32.3436 20.8681 31.7775 20.8681H28.4095V18.5254H31.7773C32.3436 18.5254 32.8027 18.0663 32.8027 17.5V13.1067C32.8027 12.5405 32.3436 12.0814 31.7773 12.0814H22.9908C22.4246 12.0814 21.9655 12.5405 21.9655 13.1067V17.5C21.9655 18.0663 22.4246 18.5254 22.9908 18.5254Z" fill="#1B3C53"/>
<path d="M13.3253 21.8922C13.3253 20.1955 14.7055 18.816 16.4015 18.816H18.9923C18.3265 14.9401 14.9324 11.9849 10.8637 12.0075C6.33828 12.0321 2.70908 15.7713 2.70908 20.2974V26.3581H13.3253V21.8922ZM33.9746 28.4089H1.02539C0.459102 28.4089 0 28.868 0 29.4343V33.9734C0 34.5397 0.459102 34.9988 1.02539 34.9988H33.9746C34.5409 34.9988 35 34.5397 35 33.9734V29.4343C35 28.868 34.5409 28.4089 33.9746 28.4089Z" fill="#1B3C53"/>
</svg>
