<svg width="20" height="35" viewBox="0 0 20 35" fill="none" xmlns="http://www.w3.org/2000/svg">
<path d="M5.69231 35L3 33.4716L7.61538 25.524L5 23.9956L2.69231 27.9694L0 26.441L7.92308 12.8384C6.94872 11.845 6.21795 10.7114 5.73077 9.43777C5.24359 8.16412 5 6.85226 5 5.50218C5 4.58515 5.11539 3.67475 5.34615 2.77096C5.57692 1.86718 5.94872 0.994469 6.46154 0.152838L9.07692 1.68122C8.71795 2.2671 8.46154 2.87234 8.30769 3.49694C8.15385 4.12154 8.07692 4.76448 8.07692 5.42576C8.07692 6.77584 8.41026 8.04338 9.07692 9.22838C9.74359 10.4134 10.6923 11.362 11.9231 12.0742L15.3846 14.0611C16.9744 14.9782 18.141 16.2967 18.8846 18.0166C19.6282 19.7365 20 21.3475 20 22.8493C20 23.8173 19.8718 24.7598 19.6154 25.6769C19.359 26.5939 19 27.46 18.5385 28.2751L15.8462 26.7467C16.2051 26.1354 16.4615 25.5113 16.6154 24.8745C16.7692 24.2376 16.8462 23.5881 16.8462 22.9258C16.8462 22.1106 16.7308 21.321 16.5 20.5568C16.2692 19.7926 15.8974 19.0793 15.3846 18.417L5.69231 35ZM16.1538 12.2271C15.3077 12.2271 14.5836 11.928 13.9815 11.3299C13.3795 10.7318 13.0779 10.0119 13.0769 9.17031C13.0759 8.32868 13.3774 7.60932 13.9815 7.01223C14.5856 6.41514 15.3097 6.11558 16.1538 6.11354C16.9979 6.1115 17.7226 6.41106 18.3277 7.01223C18.9328 7.61339 19.2338 8.33275 19.2308 9.17031C19.2277 10.0079 18.9267 10.7277 18.3277 11.3299C17.7287 11.9321 17.0041 12.2312 16.1538 12.2271ZM12.3077 4.58515C11.641 4.58515 11.0897 4.3559 10.6538 3.89738C10.2179 3.43886 10 2.90393 10 2.29258C10 1.63028 10.2308 1.08261 10.6923 0.649563C11.1538 0.216521 11.6923 0 12.3077 0C12.9744 0 13.5256 0.229258 13.9615 0.687773C14.3974 1.14629 14.6154 1.68122 14.6154 2.29258C14.6154 2.95488 14.3846 3.50255 13.9231 3.93559C13.4615 4.36863 12.9231 4.58515 12.3077 4.58515Z" fill="#1B3C53"/>
</svg>
