<svg width="37" height="36" viewBox="0 0 37 36" fill="none" xmlns="http://www.w3.org/2000/svg">
<path d="M15.1147 10.5794H3.56141C2.91084 10.5794 2.13046 9.59828 2.16331 8.95192C2.32115 6.62724 1.94859 4.02508 2.16331 1.73379C2.23702 0.953062 2.6208 0.410052 3.37633 0.160411C8.6218 0.0371803 13.8929 0.13497 19.148 0.111119C19.8482 0.321008 20.373 0.846527 20.4636 1.58273C20.325 3.96307 20.6791 6.60577 20.4756 8.9551C20.3434 10.4824 19.1368 10.6493 17.8356 10.6199L15.5145 12.9192C15.3415 13.071 15.0362 12.8389 15.0362 12.6814V10.6978C15.0362 10.674 15.1372 10.6366 15.1163 10.5786L15.1147 10.5794ZM4.45555 2.50179C3.92435 2.82617 4.18234 3.47651 4.75841 3.51944H17.8749C18.644 3.4296 18.6513 2.56301 18.0367 2.48271L4.45555 2.50179ZM4.6174 4.88372C4.06617 5.01729 3.98204 5.82186 4.59656 5.90216H18.0367C18.6593 5.82027 18.596 4.94653 17.9574 4.86225L4.6174 4.88372ZM4.53728 7.34277C3.94118 7.47872 4.12866 8.30079 4.67588 8.36121H17.9566C18.6168 8.27455 18.6721 7.36662 17.9542 7.32448L4.53728 7.34277Z" fill="#1B3C53"/>
<path d="M23.8284 24.9403H12.7141V35.0961H23.8284V24.9403Z" fill="#1B3C53"/>
<path d="M28.5457 11.7696C28.4792 11.8356 28.5994 13.3453 28.5457 13.6339C28.4984 13.8907 28.2797 13.8875 28.1018 13.7572L26.1709 11.7863L20.468 11.733C20.3967 11.6583 20.0121 11.5454 19.9977 11.5239C19.8478 11.2933 20.234 11.2536 20.4175 11.1224C20.9415 10.7479 21.2988 10.1731 21.431 9.54903L22.0279 9.78913C24.0373 9.64762 26.2903 9.97119 28.2701 9.79072C29.0865 9.71678 29.012 8.85178 28.504 8.75797C26.1765 8.8017 23.8226 8.65621 21.5103 8.83509V7.2482C21.6914 7.26012 21.7379 7.38335 21.9454 7.41118C23.8554 7.67195 26.372 7.20526 28.3478 7.40879C28.9351 7.38574 29.0689 6.7346 28.6242 6.41738C26.4449 6.39989 24.212 6.29892 22.0263 6.37207C21.8476 6.37843 21.6874 6.45316 21.5103 6.45475V4.86786C21.6898 4.98552 21.8132 5.01176 22.0263 5.03004C24.0686 5.20575 26.3608 4.88773 28.4311 5.03004C29.0761 4.94577 29.032 4.00365 28.3486 3.99252C26.3055 4.12927 24.0421 3.81762 22.0263 3.99014C21.8132 4.00842 21.6898 4.03466 21.5103 4.15233V2.0105H29.8661C29.8893 2.0105 30.2066 2.20449 30.2659 2.24901C30.6104 2.50501 30.7426 2.82064 30.785 3.24121C31.023 5.59929 30.6544 8.41133 30.7314 10.8028C30.6753 11.163 30.1497 11.7696 29.7867 11.7696H28.5473H28.5457Z" fill="#1B3C53"/>
<path d="M11.5957 35.0951L10.8834 35.0871L9.29947 29.638C8.96056 28.2967 7.27483 28.8692 6.21884 28.7276C4.14533 28.4494 2.68634 26.4904 2.55655 24.5076C2.45079 22.9 2.42034 20.2168 2.55735 18.6299C2.66712 17.361 3.84488 16.5008 5.06912 17.0955C5.20292 17.1607 5.88474 17.6814 5.75815 17.7991C4.22866 17.4485 2.90747 18.5774 3.04127 20.1397C3.17027 21.6502 4.90167 22.1853 5.95926 22.9557C6.10988 23.707 5.67483 25.1675 6.76286 25.332C8.33962 25.5698 9.24579 25.2653 10.4364 26.6852C10.6791 26.9746 11.5949 28.4987 11.5949 28.7889V35.0967L11.5957 35.0951Z" fill="#1B3C53"/>
<path d="M24.9492 28.7884C25.071 28.0649 26.151 26.5098 26.7623 26.0646C27.876 25.2536 28.5875 25.512 29.7821 25.3316C30.8701 25.167 30.4351 23.7065 30.5857 22.9552C31.6433 22.1848 33.3747 21.649 33.5036 20.1392C33.6375 18.5777 32.3163 17.448 30.7868 17.7986C30.6602 17.6809 31.342 17.1602 31.4758 17.095C32.7 16.5003 33.877 17.3605 33.9876 18.6294C34.1254 20.2163 34.0941 22.8995 33.9884 24.5071C33.8578 26.4915 32.402 28.4489 30.3261 28.7272C29.2701 28.8687 27.5852 28.297 27.2455 29.6375L25.6615 35.0867L24.9492 35.0946V28.7868V28.7884Z" fill="#1B3C53"/>
<path d="M32.1168 20.7057C31.8155 21.011 29.6114 22.3594 29.2277 22.4007C27.5355 22.582 25.5245 22.2711 23.7971 22.3936C22.5873 22.2306 22.3862 20.6564 23.5079 20.216L28.7421 20.1738C29.7572 19.8773 30.9791 18.183 32.0623 19.0314C32.5967 19.4503 32.5799 20.2366 32.1168 20.7057Z" fill="#1B3C53"/>
<path d="M4.42893 20.7055C3.69102 19.9589 4.26308 18.7123 5.23253 18.7552C5.95362 18.787 7.13619 20.071 7.80279 20.1736C9.32908 20.4097 11.3914 19.9931 12.9762 20.1966C14.1555 20.5767 13.9736 22.2272 12.7478 22.3933C11.0212 22.2709 9.0094 22.5817 7.31726 22.4005C6.93349 22.3591 4.72938 21.0107 4.42813 20.7055H4.42893Z" fill="#1B3C53"/>
<path d="M25.4281 23.432V23.9082H11.1162V23.432H12.995C13.4157 23.432 14.023 22.9693 14.3162 22.6799C14.5133 22.4859 14.5526 22.183 14.9091 22.2371L21.7882 22.2434C22.2105 22.5448 22.4172 22.9979 22.9484 23.234C23.0229 23.2674 23.5164 23.432 23.5485 23.432H25.4273H25.4281Z" fill="#1B3C53"/>
<path d="M4.47952 29.3827H2.36034C1.41412 29.3827 0.10736 28.1424 0.00881205 27.194L0 19.0266C0.0985479 18.1783 1.17296 18.2363 1.28112 19.1872C1.55033 21.5524 1.05118 24.4098 1.27792 26.8068C1.32839 27.3395 1.68493 27.8682 2.23455 27.9993C2.50055 28.0629 2.72249 27.9874 2.99009 28.1226C3.17837 28.218 3.40671 28.5495 3.60621 28.7014C3.88343 28.9113 4.37376 29.0734 4.47872 29.3827H4.47952Z" fill="#1B3C53"/>
<path d="M32.0638 29.3827C31.9308 29.2674 32.8362 28.7777 32.9364 28.7014C33.1367 28.5495 33.3642 28.218 33.5525 28.1226C33.8201 27.9874 34.042 28.0629 34.308 27.9993C34.8576 27.8682 35.2142 27.3395 35.2646 26.8068C35.4914 24.4098 34.9922 21.5524 35.2614 19.1872C35.3696 18.2363 36.4432 18.1783 36.5426 19.0266L36.5337 27.194C36.4344 28.1424 35.1276 29.3827 34.1822 29.3827H32.063H32.0638Z" fill="#1B3C53"/>
<path d="M3.81769 11.9471C6.97042 11.416 7.38304 15.9207 4.50993 16.2037C1.74498 16.4764 1.33797 12.3645 3.81769 11.9471Z" fill="#1B3C53"/>
<path d="M31.8054 11.9487C35.2289 11.4549 35.1207 16.5074 32.0329 16.2037C29.5107 15.9564 29.4771 12.2842 31.8054 11.9487Z" fill="#1B3C53"/>
<path d="M7.11869 29.8592V35.0953H5.71979C5.71098 35.0953 5.59961 34.9848 5.59961 34.9761V29.7002L7.11869 29.8592Z" fill="#1B3C53"/>
<path d="M30.9439 29.7002V34.9761C30.9439 34.9848 30.8325 35.0953 30.8237 35.0953H29.4248V29.8592L30.9439 29.7002Z" fill="#1B3C53"/>
</svg>
