<svg width="41" height="35" viewBox="0 0 41 35" fill="none" xmlns="http://www.w3.org/2000/svg">
<path d="M19.0641 9.2622C19.132 9.28438 19.8688 10.2024 19.9875 10.344C20.2712 10.344 20.8102 9.34325 21.1189 9.25367C21.333 9.19139 22.2925 9.21186 22.5358 9.26049C23.4789 9.44989 24.6061 10.6392 24.7428 11.5827V18.5537C24.4926 19.3335 23.8417 19.6739 23.1135 19.935C23.0026 22.2606 22.9046 24.5743 22.9493 26.9068C22.755 27.6917 22.9209 28.6899 22.7731 29.456C22.6974 29.8476 21.9881 30.2895 21.6107 30.3458C21.0793 30.426 18.9747 30.4277 18.4468 30.3458C17.814 30.2477 17.3652 29.7196 17.293 29.1071C17.0978 27.4673 17.2526 25.7406 17.201 24.0897C17.1804 23.4183 17.0523 22.642 17.0222 21.968C16.9921 21.294 17.0471 20.6072 17.0308 19.9307C15.9638 19.6082 15.4118 19.2021 15.3104 18.047C15.1745 16.4908 15.196 13.8282 15.3052 12.255C15.3826 11.1417 15.7944 10.2237 16.7797 9.63075C17.3514 9.28694 18.427 9.05489 19.0624 9.2622H19.0641Z" fill="#1B3C53"/>
<path d="M26.9264 7.66754C27.1069 7.84926 27.4577 8.34238 27.6993 8.30484C27.8455 8.13336 28.5015 7.29984 28.627 7.24865C29.5005 6.88777 31.024 7.56175 31.6078 8.25877C32.7504 9.62123 32.3738 13.1498 32.2921 14.8945C32.2483 15.8261 32.5277 16.6323 31.7711 17.3575C31.4444 17.6714 31.0154 17.8207 30.5795 17.9223C30.6044 17.9863 30.6526 18.0622 30.6466 18.1296C30.3998 20.7948 30.5503 23.4753 30.4118 26.1397C30.3946 26.4656 30.3628 27.0218 30.3173 27.323C30.2794 27.573 29.9802 28.0115 29.767 28.1395C29.3879 28.3664 27.2926 28.4287 26.7587 28.3962C25.3255 28.3101 24.8535 28.0226 24.7469 26.5611C24.5965 24.5102 24.7512 22.1982 24.7048 20.1353C25.1175 19.7488 25.439 19.2651 25.5989 18.7234C25.4063 16.4515 25.8749 13.7052 25.6067 11.4896C25.5052 10.6501 24.8673 9.72958 24.2328 9.1921C24.0729 9.05645 23.3429 8.66827 23.3782 8.51983C23.4066 8.39954 24.0909 7.76139 24.2371 7.66584C24.7753 7.31349 25.7683 7.06864 26.4019 7.21026C26.7011 7.27681 26.7562 7.49521 26.9281 7.66754H26.9264Z" fill="#1B3C53"/>
<path d="M16.6693 8.71497C16.6546 8.738 16.297 8.8583 16.1732 8.94532C15.1767 9.64062 14.5508 10.707 14.4511 11.9185C14.317 13.5548 14.2912 16.7652 14.4605 18.3776C14.4924 18.6779 14.6015 19.1045 14.746 19.3715C14.9188 19.6914 15.2756 19.874 15.3985 20.0865C15.6994 20.6069 15.3349 23.3949 15.3048 24.1738C15.2696 25.0705 15.4527 26.5072 15.2885 27.3083C15.0521 28.4592 13.4297 28.4353 12.5158 28.3952C11.7695 28.1674 10.7206 28.5487 10.1257 27.9575C10.0328 27.8654 9.75768 27.4448 9.73533 27.3236C9.61152 26.6624 9.76628 25.5098 9.73533 24.7702C9.70696 24.0971 9.57713 23.319 9.5565 22.6484C9.50921 21.0914 9.66397 19.52 9.46193 17.9741C9.10685 17.7122 8.76381 17.7258 8.39927 17.411C8.07514 17.1312 7.88342 16.7413 7.76391 16.3386C7.89287 14.3107 7.57304 12.0388 7.75445 10.0399C7.89459 8.50083 9.14382 7.2544 10.7146 7.18785C11.8056 7.14178 11.8194 7.75178 12.5201 8.38139C12.7513 8.1536 13.3876 7.28682 13.6532 7.20833C13.9559 7.1196 14.6772 7.20065 14.9987 7.28511C15.3659 7.38151 16.9598 8.25513 16.6701 8.71326L16.6693 8.71497Z" fill="#1B3C53"/>
<path d="M37.0709 29.0427C38.8446 27.1325 34.2053 25.7751 33.0034 25.4347C32.6543 25.3358 31.5771 25.1959 31.3509 25.0312C31.1515 24.887 31.1171 24.2463 31.7301 24.3103C32.8409 24.4272 34.9645 25.143 36.0443 25.567C38.4577 26.514 41.9715 28.4984 38.8575 31.1141C35.7512 33.7238 27.2611 34.7911 23.2486 34.9523C17.582 35.1793 6.44213 34.6845 1.7066 31.4596C-3.83022 27.6887 5.63138 24.719 8.48663 24.2975C8.86062 24.2395 9.01795 24.8623 8.78926 25.0312C8.62505 25.1532 7.45234 25.3469 7.13853 25.4364C6.10596 25.7308 4.83353 26.1249 3.90757 26.6581C0.12723 28.8336 5.6907 30.5561 7.47899 31.0091C12.9771 32.4015 19.6411 32.4876 25.3034 32.0542C28.0624 31.8435 35.1743 31.0842 37.0692 29.0427H37.0709Z" fill="#1B3C53"/>
<path d="M14.3339 0.583612C15.6416 1.47173 16.0319 3.34693 15.2203 4.67697C13.9874 6.69805 11.1296 6.72365 9.84945 4.73498C8.07062 1.97081 11.4959 -1.34192 14.3339 0.583612Z" fill="#1B3C53"/>
<path d="M25.6408 5.53968C22.6618 3.26692 25.7947 -1.55502 29.2217 0.496783C32.8722 2.68252 29.171 8.23219 25.6408 5.53968Z" fill="#1B3C53"/>
<path d="M22.2277 7.33269C19.2401 10.2547 14.8287 5.51209 17.9668 2.80679C21.0842 0.120261 25.0279 4.59326 22.2277 7.33269Z" fill="#1B3C53"/>
</svg>
