<svg width="32" height="32" viewBox="0 0 32 32" fill="none" xmlns="http://www.w3.org/2000/svg">
<g clip-path="url(#clip0_106_160)">
<path fill-rule="evenodd" clip-rule="evenodd" d="M16 32H8C5.87827 32 3.84344 31.1571 2.34315 29.6569C0.842855 28.1566 0 26.1217 0 24V8C0 5.87827 0.842855 3.84344 2.34315 2.34315C3.84344 0.842855 5.87827 0 8 0L24 0C26.1217 0 28.1566 0.842855 29.6569 2.34315C31.1571 3.84344 32 5.87827 32 8V24C32 26.1217 31.1571 28.1566 29.6569 29.6569C28.1566 31.1571 26.1217 32 24 32H21C21 31.337 20.7366 30.7011 20.2678 30.2322C19.7989 29.7634 19.163 29.5 18.5 29.5C17.837 29.5 17.2011 29.7634 16.7322 30.2322C16.2634 30.7011 16 31.337 16 32Z" fill="#3764B9"/>
<path fill-rule="evenodd" clip-rule="evenodd" d="M15 9H24C25.1546 9.00145 26.2655 8.55905 27.1031 7.76433C27.9406 6.96961 28.4407 5.88336 28.4997 4.73029C28.5588 3.57722 28.1725 2.44555 27.4205 1.56938C26.6686 0.693211 25.6087 0.139576 24.46 0.023C24.307 0.0145 24.1555 0 24 0H8C5.87827 0 3.84344 0.842855 2.34315 2.34315C0.842855 3.84344 0 5.87827 0 8L0 24C0 20.0218 1.58035 16.2064 4.3934 13.3934C7.20644 10.5804 11.0218 9 15 9Z" fill="#507DD2"/>
<path fill-rule="evenodd" clip-rule="evenodd" d="M24 16C22.4178 16 20.871 16.4692 19.5554 17.3482C18.2399 18.2273 17.2145 19.4767 16.609 20.9385C16.0035 22.4003 15.845 24.0089 16.1537 25.5607C16.4624 27.1126 17.2243 28.538 18.3431 29.6569C19.462 30.7757 20.8874 31.5376 22.4393 31.8463C23.9911 32.155 25.5997 31.9965 27.0615 31.391C28.5233 30.7855 29.7727 29.7602 30.6518 28.4446C31.5308 27.129 32 25.5823 32 24V8C32 10.1217 31.1572 12.1566 29.6569 13.6569C28.1566 15.1571 26.1217 16 24 16Z" fill="#1E4BA0"/>
<path fill-rule="evenodd" clip-rule="evenodd" d="M26 9C26 9.26522 25.8946 9.51957 25.7071 9.70711C25.5196 9.89464 25.2652 10 25 10H22C21.7348 10 21.4804 10.1054 21.2929 10.2929C21.1054 10.4804 21 10.7348 21 11V15H24.78C24.9279 15 25.074 15.0329 25.2077 15.0961C25.3414 15.1594 25.4594 15.2516 25.5532 15.366C25.647 15.4804 25.7143 15.6142 25.7501 15.7577C25.7859 15.9012 25.7895 16.0509 25.7605 16.196L25.1605 19.196C25.1152 19.4227 24.9927 19.6267 24.814 19.7733C24.6352 19.9199 24.4112 20 24.18 20H21V32H16V20H13C12.7348 20 12.4804 19.8946 12.2929 19.7071C12.1054 19.5196 12 19.2652 12 19V16C12 15.7348 12.1054 15.4804 12.2929 15.2929C12.4804 15.1054 12.7348 15 13 15H16V11C16 9.4087 16.6321 7.88258 17.7574 6.75736C18.8826 5.63214 20.4087 5 22 5H25C25.2652 5 25.5196 5.10536 25.7071 5.29289C25.8946 5.48043 26 5.73478 26 6V9Z" fill="white"/>
</g>
<defs>
<clipPath id="clip0_106_160">
<rect width="32" height="32" fill="white"/>
</clipPath>
</defs>
</svg>
