<svg width="30" height="30" viewBox="0 0 30 30" fill="none" xmlns="http://www.w3.org/2000/svg">
<g clip-path="url(#clip0_292_1702)">
<path fill-rule="evenodd" clip-rule="evenodd" d="M15 30H7.5C5.51088 30 3.60322 29.2098 2.1967 27.8033C0.790176 26.3968 0 24.4891 0 22.5V7.5C0 5.51088 0.790176 3.60322 2.1967 2.1967C3.60322 0.790176 5.51088 0 7.5 0L22.5 0C24.4891 0 26.3968 0.790176 27.8033 2.1967C29.2098 3.60322 30 5.51088 30 7.5V22.5C30 24.4891 29.2098 26.3968 27.8033 27.8033C26.3968 29.2098 24.4891 30 22.5 30H19.6875C19.6875 29.3784 19.4406 28.7823 19.001 28.3427C18.5615 27.9032 17.9654 27.6562 17.3438 27.6562C16.7221 27.6562 16.126 27.9032 15.6865 28.3427C15.2469 28.7823 15 29.3784 15 30Z" fill="#1B3C53"/>
<path fill-rule="evenodd" clip-rule="evenodd" d="M14.0625 8.4375H22.5C23.5824 8.43886 24.624 8.02411 25.4091 7.27906C26.1943 6.53401 26.6631 5.51565 26.7185 4.43465C26.7739 3.35364 26.4117 2.29271 25.7067 1.4713C25.0018 0.649885 24.0081 0.130852 22.9312 0.0215625C22.7878 0.0135938 22.6458 0 22.5 0H7.5C5.51088 0 3.60322 0.790176 2.1967 2.1967C0.790176 3.60322 0 5.51088 0 7.5L0 22.5C0 18.7704 1.48158 15.1935 4.11881 12.5563C6.75604 9.91908 10.3329 8.4375 14.0625 8.4375Z" fill="#1B3C53"/>
<path fill-rule="evenodd" clip-rule="evenodd" d="M22.5 15C21.0166 15 19.5666 15.4399 18.3332 16.264C17.0999 17.0881 16.1386 18.2594 15.5709 19.6299C15.0032 21.0003 14.8547 22.5083 15.1441 23.9632C15.4335 25.418 16.1478 26.7544 17.1967 27.8033C18.2456 28.8522 19.582 29.5665 21.0368 29.8559C22.4917 30.1453 23.9997 29.9968 25.3701 29.4291C26.7406 28.8614 27.9119 27.9001 28.736 26.6668C29.5601 25.4334 30 23.9834 30 22.5V7.5C30 9.48912 29.2098 11.3968 27.8033 12.8033C26.3968 14.2098 24.4891 15 22.5 15Z" fill="#1B3C53"/>
<path fill-rule="evenodd" clip-rule="evenodd" d="M24.375 8.4375C24.375 8.68614 24.2762 8.9246 24.1004 9.10041C23.9246 9.27623 23.6861 9.375 23.4375 9.375H20.625C20.3764 9.375 20.1379 9.47377 19.9621 9.64959C19.7863 9.8254 19.6875 10.0639 19.6875 10.3125V14.0625H23.2313C23.3699 14.0625 23.5069 14.0933 23.6322 14.1526C23.7576 14.212 23.8682 14.2984 23.9562 14.4056C24.0441 14.5129 24.1071 14.6383 24.1407 14.7729C24.1743 14.9074 24.1777 15.0478 24.1505 15.1837L23.588 17.9962C23.5455 18.2088 23.4307 18.4 23.2631 18.5374C23.0955 18.6749 22.8855 18.75 22.6688 18.75H19.6875V30H15V18.75H12.1875C11.9389 18.75 11.7004 18.6512 11.5246 18.4754C11.3488 18.2996 11.25 18.0611 11.25 17.8125V15C11.25 14.7514 11.3488 14.5129 11.5246 14.3371C11.7004 14.1613 11.9389 14.0625 12.1875 14.0625H15V10.3125C15 8.82066 15.5926 7.38992 16.6475 6.33502C17.7024 5.28013 19.1332 4.6875 20.625 4.6875H23.4375C23.6861 4.6875 23.9246 4.78627 24.1004 4.96209C24.2762 5.1379 24.375 5.37636 24.375 5.625V8.4375Z" fill="white"/>
</g>
<defs>
<clipPath id="clip0_292_1702">
<rect width="30" height="30" fill="white"/>
</clipPath>
</defs>
</svg>
