<svg width="30" height="30" viewBox="0 0 30 30" fill="none" xmlns="http://www.w3.org/2000/svg">
<g clip-path="url(#clip0_292_1723)">
<path fill-rule="evenodd" clip-rule="evenodd" d="M22.5 30H7.5C5.51088 30 3.60322 29.2098 2.1967 27.8033C0.790176 26.3968 0 24.4891 0 22.5V7.5C0 5.51088 0.790176 3.60322 2.1967 2.1967C3.60322 0.790176 5.51088 0 7.5 0L22.5 0C24.4891 0 26.3968 0.790176 27.8033 2.1967C29.2098 3.60322 30 5.51088 30 7.5V22.5C30 24.4891 29.2098 26.3968 27.8033 27.8033C26.3968 29.2098 24.4891 30 22.5 30Z" fill="#1B3C53"/>
<path fill-rule="evenodd" clip-rule="evenodd" d="M14.0625 8.4375H22.5C23.5824 8.43886 24.624 8.02411 25.4091 7.27906C26.1943 6.53401 26.6631 5.51565 26.7185 4.43465C26.7739 3.35364 26.4117 2.29271 25.7067 1.4713C25.0018 0.649885 24.0081 0.130852 22.9312 0.0215625C22.7878 0.0135938 22.6458 0 22.5 0H7.5C5.51088 0 3.60322 0.790176 2.1967 2.1967C0.790176 3.60322 0 5.51088 0 7.5L0 22.5C0 18.7704 1.48158 15.1935 4.11881 12.5563C6.75604 9.91908 10.3329 8.4375 14.0625 8.4375Z" fill="#1B3C53"/>
<path fill-rule="evenodd" clip-rule="evenodd" d="M22.5 15C21.0166 15 19.5666 15.4399 18.3332 16.264C17.0999 17.0881 16.1386 18.2594 15.5709 19.6299C15.0032 21.0003 14.8547 22.5083 15.1441 23.9632C15.4335 25.418 16.1478 26.7544 17.1967 27.8033C18.2456 28.8522 19.582 29.5665 21.0368 29.8559C22.4917 30.1453 23.9997 29.9968 25.3701 29.4291C26.7406 28.8614 27.9119 27.9001 28.736 26.6668C29.5601 25.4334 30 23.9834 30 22.5V7.5C30 9.48912 29.2098 11.3968 27.8033 12.8033C26.3968 14.2098 24.4891 15 22.5 15Z" fill="#1B3C53"/>
<path d="M20.8594 10.3125C21.5066 10.3125 22.0312 9.78783 22.0312 9.14062C22.0312 8.49342 21.5066 7.96875 20.8594 7.96875C20.2122 7.96875 19.6875 8.49342 19.6875 9.14062C19.6875 9.78783 20.2122 10.3125 20.8594 10.3125Z" fill="white"/>
<path fill-rule="evenodd" clip-rule="evenodd" d="M15 11.25C15.7417 11.25 16.4667 11.4699 17.0834 11.882C17.7001 12.294 18.1807 12.8797 18.4645 13.5649C18.7484 14.2502 18.8226 15.0042 18.6779 15.7316C18.5333 16.459 18.1761 17.1272 17.6516 17.6516C17.1272 18.1761 16.459 18.5333 15.7316 18.6779C15.0042 18.8226 14.2502 18.7484 13.5649 18.4645C12.8797 18.1807 12.294 17.7001 11.882 17.0834C11.4699 16.4667 11.25 15.7417 11.25 15C11.2505 14.0056 11.6457 13.0521 12.3489 12.3489C13.0521 11.6457 14.0056 11.2505 15 11.25ZM15 9.375C16.1125 9.375 17.2001 9.7049 18.1251 10.323C19.0501 10.9411 19.7711 11.8196 20.1968 12.8474C20.6226 13.8752 20.734 15.0062 20.5169 16.0974C20.2999 17.1885 19.7641 18.1908 18.9775 18.9775C18.1908 19.7641 17.1885 20.2999 16.0974 20.5169C15.0062 20.734 13.8752 20.6226 12.8474 20.1968C11.8196 19.7711 10.9411 19.0501 10.323 18.1251C9.7049 17.2001 9.375 16.1125 9.375 15C9.37575 13.5084 9.96862 12.0781 11.0233 11.0233C12.0781 9.96862 13.5084 9.37575 15 9.375Z" fill="white"/>
<path fill-rule="evenodd" clip-rule="evenodd" d="M24.375 10.3125C24.375 9.0693 23.8811 7.87701 23.0021 6.99794C22.123 6.11886 20.9307 5.625 19.6875 5.625H10.3125C9.0693 5.625 7.87701 6.11886 6.99794 6.99794C6.11886 7.87701 5.625 9.0693 5.625 10.3125V19.6875C5.625 20.9307 6.11886 22.123 6.99794 23.0021C7.87701 23.8811 9.0693 24.375 10.3125 24.375H19.6875C20.9307 24.375 22.123 23.8811 23.0021 23.0021C23.8811 22.123 24.375 20.9307 24.375 19.6875V10.3125ZM26.25 10.3125C26.25 8.57202 25.5586 6.90282 24.3279 5.67211C23.0972 4.4414 21.428 3.75 19.6875 3.75H10.3125C8.57202 3.75 6.90282 4.4414 5.67211 5.67211C4.4414 6.90282 3.75 8.57202 3.75 10.3125V19.6875C3.75 21.428 4.4414 23.0972 5.67211 24.3279C6.90282 25.5586 8.57202 26.25 10.3125 26.25H19.6875C21.428 26.25 23.0972 25.5586 24.3279 24.3279C25.5586 23.0972 26.25 21.428 26.25 19.6875V10.3125Z" fill="white"/>
</g>
<defs>
<clipPath id="clip0_292_1723">
<rect width="30" height="30" fill="white"/>
</clipPath>
</defs>
</svg>
