<svg width="32" height="32" viewBox="0 0 32 32" fill="none" xmlns="http://www.w3.org/2000/svg">
<g clip-path="url(#clip0_106_181)">
<path fill-rule="evenodd" clip-rule="evenodd" d="M24 32H8C5.87827 32 3.84344 31.1571 2.34315 29.6569C0.842855 28.1566 0 26.1217 0 24V8C0 5.87827 0.842855 3.84344 2.34315 2.34315C3.84344 0.842855 5.87827 0 8 0L24 0C26.1217 0 28.1566 0.842855 29.6569 2.34315C31.1571 3.84344 32 5.87827 32 8V24C32 26.1217 31.1571 28.1566 29.6569 29.6569C28.1566 31.1571 26.1217 32 24 32Z" fill="#FF3A55"/>
<path fill-rule="evenodd" clip-rule="evenodd" d="M15 9H24C25.1546 9.00145 26.2655 8.55905 27.1031 7.76433C27.9406 6.96961 28.4407 5.88336 28.4997 4.73029C28.5588 3.57722 28.1725 2.44555 27.4205 1.56938C26.6686 0.693211 25.6087 0.139576 24.46 0.023C24.307 0.0145 24.1555 0 24 0H8C5.87827 0 3.84344 0.842855 2.34315 2.34315C0.842855 3.84344 0 5.87827 0 8L0 24C0 20.0218 1.58035 16.2064 4.3934 13.3934C7.20644 10.5804 11.0218 9 15 9Z" fill="#FF796C"/>
<path fill-rule="evenodd" clip-rule="evenodd" d="M24 16C22.4178 16 20.871 16.4692 19.5554 17.3482C18.2399 18.2273 17.2145 19.4767 16.609 20.9385C16.0035 22.4003 15.845 24.0089 16.1537 25.5607C16.4624 27.1126 17.2243 28.538 18.3431 29.6569C19.462 30.7757 20.8874 31.5376 22.4393 31.8463C23.9911 32.155 25.5997 31.9965 27.0615 31.391C28.5233 30.7855 29.7727 29.7602 30.6518 28.4446C31.5308 27.129 32 25.5823 32 24V8C32 10.1217 31.1572 12.1566 29.6569 13.6569C28.1566 15.1571 26.1217 16 24 16Z" fill="#E00047"/>
<path d="M22.25 11C22.9404 11 23.5 10.4404 23.5 9.75C23.5 9.05964 22.9404 8.5 22.25 8.5C21.5596 8.5 21 9.05964 21 9.75C21 10.4404 21.5596 11 22.25 11Z" fill="white"/>
<path fill-rule="evenodd" clip-rule="evenodd" d="M16 12C16.7911 12 17.5645 12.2346 18.2223 12.6741C18.8801 13.1136 19.3928 13.7384 19.6955 14.4693C19.9983 15.2002 20.0775 16.0044 19.9231 16.7804C19.7688 17.5563 19.3878 18.269 18.8284 18.8284C18.269 19.3878 17.5563 19.7688 16.7804 19.9231C16.0044 20.0775 15.2002 19.9983 14.4693 19.6955C13.7384 19.3928 13.1136 18.8801 12.6741 18.2223C12.2346 17.5645 12 16.7911 12 16C12.0005 14.9393 12.4221 13.9222 13.1722 13.1722C13.9222 12.4221 14.9393 12.0005 16 12ZM16 10C17.1867 10 18.3467 10.3519 19.3334 11.0112C20.3201 11.6705 21.0892 12.6075 21.5433 13.7039C21.9974 14.8003 22.1162 16.0067 21.8847 17.1705C21.6532 18.3344 21.0818 19.4035 20.2426 20.2426C19.4035 21.0818 18.3344 21.6532 17.1705 21.8847C16.0067 22.1162 14.8003 21.9974 13.7039 21.5433C12.6075 21.0892 11.6705 20.3201 11.0112 19.3334C10.3519 18.3467 10 17.1867 10 16C10.0008 14.4089 10.6332 12.8833 11.7582 11.7582C12.8833 10.6332 14.4089 10.0008 16 10Z" fill="white"/>
<path fill-rule="evenodd" clip-rule="evenodd" d="M26 11C26 9.67392 25.4732 8.40215 24.5355 7.46447C23.5979 6.52678 22.3261 6 21 6H11C9.67392 6 8.40215 6.52678 7.46447 7.46447C6.52678 8.40215 6 9.67392 6 11V21C6 22.3261 6.52678 23.5979 7.46447 24.5355C8.40215 25.4732 9.67392 26 11 26H21C22.3261 26 23.5979 25.4732 24.5355 24.5355C25.4732 23.5979 26 22.3261 26 21V11ZM28 11C28 9.14348 27.2625 7.36301 25.9497 6.05025C24.637 4.7375 22.8565 4 21 4H11C9.14348 4 7.36301 4.7375 6.05025 6.05025C4.7375 7.36301 4 9.14348 4 11V21C4 22.8565 4.7375 24.637 6.05025 25.9497C7.36301 27.2625 9.14348 28 11 28H21C22.8565 28 24.637 27.2625 25.9497 25.9497C27.2625 24.637 28 22.8565 28 21V11Z" fill="white"/>
</g>
<defs>
<clipPath id="clip0_106_181">
<rect width="32" height="32" fill="white"/>
</clipPath>
</defs>
</svg>
