<svg width="32" height="32" viewBox="0 0 32 32" fill="none" xmlns="http://www.w3.org/2000/svg">
<path fill-rule="evenodd" clip-rule="evenodd" d="M24 32H8C5.87827 32 3.84344 31.1571 2.34315 29.6569C0.842855 28.1566 0 26.1217 0 24V8C0 5.87827 0.842855 3.84344 2.34315 2.34315C3.84344 0.842855 5.87827 0 8 0L24 0C26.1217 0 28.1566 0.842855 29.6569 2.34315C31.1571 3.84344 32 5.87827 32 8V24C32 26.1217 31.1571 28.1566 29.6569 29.6569C28.1566 31.1571 26.1217 32 24 32Z" fill="#2864B4"/>
<path fill-rule="evenodd" clip-rule="evenodd" d="M15 9H24C25.1546 9.00145 26.2655 8.55905 27.1031 7.76433C27.9406 6.96961 28.4407 5.88336 28.4997 4.73029C28.5588 3.57722 28.1725 2.44555 27.4205 1.56938C26.6686 0.693211 25.6087 0.139576 24.46 0.023C24.307 0.0145 24.1555 0 24 0H8C5.87827 0 3.84344 0.842855 2.34315 2.34315C0.842855 3.84344 0 5.87827 0 8L0 24C0 20.0218 1.58035 16.2064 4.3934 13.3934C7.20644 10.5804 11.0218 9 15 9Z" fill="#417DCD"/>
<path fill-rule="evenodd" clip-rule="evenodd" d="M24 16C22.4178 16 20.871 16.4692 19.5554 17.3482C18.2398 18.2273 17.2145 19.4767 16.609 20.9385C16.0035 22.4003 15.845 24.0089 16.1537 25.5607C16.4624 27.1126 17.2243 28.538 18.3431 29.6569C19.462 30.7757 20.8874 31.5376 22.4393 31.8463C23.9911 32.155 25.5997 31.9965 27.0615 31.391C28.5233 30.7855 29.7727 29.7602 30.6518 28.4446C31.5308 27.129 32 25.5822 32 24V8C32 10.1217 31.1571 12.1566 29.6569 13.6569C28.1566 15.1571 26.1217 16 24 16Z" fill="#0F4B9B"/>
<path d="M9 12.5H7C6.44772 12.5 6 12.9477 6 13.5V25C6 25.5523 6.44772 26 7 26H9C9.55228 26 10 25.5523 10 25V13.5C10 12.9477 9.55228 12.5 9 12.5Z" fill="white"/>
<path d="M8 10.5C9.38071 10.5 10.5 9.38071 10.5 8C10.5 6.61929 9.38071 5.5 8 5.5C6.61929 5.5 5.5 6.61929 5.5 8C5.5 9.38071 6.61929 10.5 8 10.5Z" fill="white"/>
<path fill-rule="evenodd" clip-rule="evenodd" d="M17 14.32C17.4032 13.6151 17.9855 13.0293 18.6879 12.6219C19.3904 12.2145 20.188 12 21 12C23.5435 12 26 13.5 26 17.5V25C26 25.2652 25.8946 25.5196 25.7071 25.7071C25.5196 25.8946 25.2652 26 25 26H23C22.7348 26 22.4804 25.8946 22.2929 25.7071C22.1054 25.5196 22 25.2652 22 25V18C22 17.337 21.7366 16.7011 21.2678 16.2322C20.7989 15.7634 20.163 15.5 19.5 15.5C18.837 15.5 18.2011 15.7634 17.7322 16.2322C17.2634 16.7011 17 17.337 17 18V25C17 25.2652 16.8946 25.5196 16.7071 25.7071C16.5196 25.8946 16.2652 26 16 26H14C13.7348 26 13.4804 25.8946 13.2929 25.7071C13.1054 25.5196 13 25.2652 13 25V13.5C13 13.2348 13.1054 12.9804 13.2929 12.7929C13.4804 12.6054 13.7348 12.5 14 12.5H16C16.2652 12.5 16.5196 12.6054 16.7071 12.7929C16.8946 12.9804 17 13.2348 17 13.5V14.32Z" fill="white"/>
</svg>
