<svg width="31" height="30" viewBox="0 0 31 30" fill="none" xmlns="http://www.w3.org/2000/svg">
<path fill-rule="evenodd" clip-rule="evenodd" d="M23.1321 29.7978H8.33439C6.37209 29.7978 4.49017 29.0182 3.10262 27.6307C1.71507 26.2431 0.935547 24.3612 0.935547 22.3989V7.60124C0.935547 5.63894 1.71507 3.75702 3.10262 2.36946C4.49017 0.981911 6.37209 0.202393 8.33439 0.202393L23.1321 0.202393C25.0944 0.202393 26.9763 0.981911 28.3638 2.36946C29.7514 3.75702 30.5309 5.63894 30.5309 7.60124V22.3989C30.5309 24.3612 29.7514 26.2431 28.3638 27.6307C26.9763 29.0182 25.0944 29.7978 23.1321 29.7978Z" fill="#1B3C53"/>
<path fill-rule="evenodd" clip-rule="evenodd" d="M14.8084 8.52609H23.1321C24.1999 8.52743 25.2274 8.11828 26.002 7.38328C26.7766 6.64827 27.239 5.64365 27.2937 4.57723C27.3483 3.51081 26.991 2.46418 26.2956 1.65384C25.6002 0.843513 24.6199 0.33148 23.5575 0.223664C23.416 0.215803 23.2759 0.202393 23.1321 0.202393H8.33439C6.37209 0.202393 4.49017 0.981912 3.10262 2.36946C1.71507 3.75702 0.935547 5.63894 0.935547 7.60124L0.935547 22.3989C0.935547 18.7196 2.39714 15.191 4.99881 12.5894C7.60047 9.98769 11.1291 8.52609 14.8084 8.52609Z" fill="#1B3C53"/>
<path fill-rule="evenodd" clip-rule="evenodd" d="M23.1332 14.9999C21.6699 14.9999 20.2394 15.4339 19.0226 16.2468C17.8059 17.0598 16.8576 18.2154 16.2976 19.5673C15.7376 20.9193 15.5911 22.407 15.8765 23.8422C16.162 25.2774 16.8667 26.5958 17.9014 27.6305C18.9362 28.6653 20.2545 29.37 21.6898 29.6554C23.125 29.9409 24.6127 29.7944 25.9646 29.2344C27.3166 28.6744 28.4721 27.7261 29.2851 26.5093C30.0981 25.2926 30.5321 23.8621 30.5321 22.3988V7.60107C30.5321 9.56337 29.7525 11.4453 28.365 12.8328C26.9774 14.2204 25.0955 14.9999 23.1332 14.9999Z" fill="#1B3C53"/>
<path d="M9.26089 11.7629H7.41118C6.9004 11.7629 6.48633 12.177 6.48633 12.6878V23.3236C6.48633 23.8344 6.9004 24.2485 7.41118 24.2485H9.26089C9.77168 24.2485 10.1857 23.8344 10.1857 23.3236V12.6878C10.1857 12.177 9.77168 11.7629 9.26089 11.7629Z" fill="white"/>
<path d="M8.33558 9.91334C9.61253 9.91334 10.6477 8.87816 10.6477 7.6012C10.6477 6.32424 9.61253 5.28906 8.33558 5.28906C7.05862 5.28906 6.02344 6.32424 6.02344 7.6012C6.02344 8.87816 7.05862 9.91334 8.33558 9.91334Z" fill="white"/>
<path fill-rule="evenodd" clip-rule="evenodd" d="M16.6584 13.4462C17.0313 12.7943 17.5698 12.2525 18.2195 11.8757C18.8691 11.4989 19.6068 11.3005 20.3578 11.3005C22.7102 11.3005 24.9821 12.6878 24.9821 16.3872V23.3237C24.9821 23.5689 24.8847 23.8042 24.7112 23.9776C24.5378 24.1511 24.3025 24.2485 24.0572 24.2485H22.2075C21.9623 24.2485 21.727 24.1511 21.5536 23.9776C21.3801 23.8042 21.2827 23.5689 21.2827 23.3237V16.8497C21.2827 16.2365 21.0391 15.6484 20.6055 15.2147C20.1719 14.7811 19.5838 14.5375 18.9705 14.5375C18.3573 14.5375 17.7692 14.7811 17.3356 15.2147C16.902 15.6484 16.6584 16.2365 16.6584 16.8497V23.3237C16.6584 23.5689 16.561 23.8042 16.3875 23.9776C16.2141 24.1511 15.9788 24.2485 15.7336 24.2485H13.8838C13.6386 24.2485 13.4033 24.1511 13.2299 23.9776C13.0564 23.8042 12.959 23.5689 12.959 23.3237V12.6878C12.959 12.4425 13.0564 12.2073 13.2299 12.0338C13.4033 11.8604 13.6386 11.763 13.8838 11.763H15.7336C15.9788 11.763 16.2141 11.8604 16.3875 12.0338C16.561 12.2073 16.6584 12.4425 16.6584 12.6878V13.4462Z" fill="white"/>
</svg>
