<svg width="32" height="32" viewBox="0 0 32 32" fill="none" xmlns="http://www.w3.org/2000/svg">
<path fill-rule="evenodd" clip-rule="evenodd" d="M16 32H8C5.87827 32 3.84344 31.1571 2.34315 29.6569C0.842855 28.1566 0 26.1217 0 24V8C0 5.87827 0.842855 3.84344 2.34315 2.34315C3.84344 0.842855 5.87827 0 8 0L24 0C26.1217 0 28.1566 0.842855 29.6569 2.34315C31.1571 3.84344 32 5.87827 32 8V24C32 26.1217 31.1571 28.1566 29.6569 29.6569C28.1566 31.1571 26.1217 32 24 32H21C20.5 32 20 32 19.5 32C19 32 19.163 32 18.5 32C17.837 32 17.5 32 17 32C16.5 32 16.5 32 16 32Z" fill="#1D1D1D"/>
<path fill-rule="evenodd" clip-rule="evenodd" d="M15 9H24C25.1546 9.00145 26.2655 8.55905 27.1031 7.76433C27.9406 6.96961 28.4407 5.88336 28.4997 4.73029C28.5588 3.57722 28.1725 2.44555 27.4205 1.56938C26.6686 0.693211 25.6087 0.139576 24.46 0.023C24.307 0.0145 24.1555 0 24 0H8C5.87827 0 3.84344 0.842855 2.34315 2.34315C0.842855 3.84344 0 5.87827 0 8L0 24C0 20.0218 1.58035 16.2064 4.3934 13.3934C7.20644 10.5804 11.0218 9 15 9Z" fill="#2B2B2B"/>
<path fill-rule="evenodd" clip-rule="evenodd" d="M24 16C22.4178 16 20.871 16.4692 19.5554 17.3482C18.2399 18.2273 17.2145 19.4767 16.609 20.9385C16.0035 22.4003 15.845 24.0089 16.1537 25.5607C16.4624 27.1126 17.2243 28.538 18.3431 29.6569C19.462 30.7757 20.8874 31.5376 22.4393 31.8463C23.9911 32.155 25.5997 31.9965 27.0615 31.391C28.5233 30.7855 29.7727 29.7602 30.6518 28.4446C31.5308 27.129 32 25.5823 32 24V8C32 10.1217 31.1572 12.1566 29.6569 13.6569C28.1566 15.1571 26.1217 16 24 16Z" fill="#0E0E0E"/>
<path d="M18.9027 13.8921L26.3482 5H24.5838L18.119 12.7209L12.9555 5H7L14.8082 16.6753L7 26H8.76443L15.5915 17.8465L21.0445 26H27L18.9023 13.8921H18.9027ZM16.4861 16.7782L15.695 15.6156L9.40018 6.36466H12.1102L17.1902 13.8304L17.9813 14.993L24.5847 24.6974H21.8746L16.4861 16.7786V16.7782Z" fill="white"/>
</svg>
