<svg width="31" height="30" viewBox="0 0 31 30" fill="none" xmlns="http://www.w3.org/2000/svg">
<path fill-rule="evenodd" clip-rule="evenodd" d="M15.2664 29.7978H7.86759C5.9053 29.7978 4.02337 29.0182 2.63582 27.6307C1.24827 26.2431 0.46875 24.3612 0.46875 22.3989V7.60124C0.46875 5.63894 1.24827 3.75702 2.63582 2.36946C4.02337 0.981911 5.9053 0.202393 7.86759 0.202393L22.6653 0.202393C24.6276 0.202393 26.5095 0.981911 27.8971 2.36946C29.2846 3.75702 30.0641 5.63894 30.0641 7.60124V22.3989C30.0641 24.3612 29.2846 26.2431 27.8971 27.6307C26.5095 29.0182 24.6276 29.7978 22.6653 29.7978H19.8907C19.4283 29.7978 18.9659 29.7978 18.5034 29.7978C18.041 29.7978 18.1918 29.7978 17.5786 29.7978C16.9654 29.7978 16.6537 29.7978 16.1913 29.7978C15.7289 29.7978 15.7289 29.7978 15.2664 29.7978Z" fill="#1B3C53"/>
<path fill-rule="evenodd" clip-rule="evenodd" d="M14.3416 8.52609H22.6653C23.7331 8.52743 24.7606 8.11828 25.5352 7.38328C26.3098 6.64827 26.7723 5.64365 26.8269 4.57723C26.8815 3.51081 26.5242 2.46418 25.8288 1.65384C25.1334 0.843513 24.1531 0.33148 23.0907 0.223664C22.9492 0.215803 22.8091 0.202393 22.6653 0.202393H7.86759C5.9053 0.202393 4.02337 0.981911 2.63582 2.36946C1.24827 3.75702 0.46875 5.63894 0.46875 7.60124L0.46875 22.3989C0.46875 18.7196 1.93035 15.191 4.53201 12.5894C7.13367 9.98769 10.6623 8.52609 14.3416 8.52609Z" fill="#1B3C53"/>
<path fill-rule="evenodd" clip-rule="evenodd" d="M22.6645 14.9999C21.2011 14.9999 19.7706 15.4339 18.5539 16.2468C17.3372 17.0598 16.3888 18.2154 15.8288 19.5673C15.2688 20.9193 15.1223 22.407 15.4078 23.8422C15.6933 25.2774 16.398 26.5958 17.4327 27.6305C18.4674 28.6653 19.7858 29.37 21.221 29.6554C22.6563 29.9409 24.1439 29.7944 25.4959 29.2344C26.8479 28.6744 28.0034 27.7261 28.8164 26.5093C29.6294 25.2926 30.0633 23.8621 30.0633 22.3988V7.60107C30.0633 9.56337 29.2838 11.4453 27.8962 12.8328C26.5087 14.2204 24.6268 14.9999 22.6645 14.9999Z" fill="#1B3C53"/>
<path d="M17.9497 13.0505L24.8357 4.82666H23.2039L17.2248 11.9673L12.4494 4.82666H6.94141L14.1629 15.6246L6.94141 24.2486H8.57325L14.8873 16.7078L19.9306 24.2486H25.4385L17.9493 13.0505H17.9497ZM15.7147 15.7198L14.983 14.6445L9.16123 6.08877H11.6676L16.3659 12.9935L17.0976 14.0688L23.2047 23.0439H20.6983L15.7147 15.7202V15.7198Z" fill="white"/>
</svg>
