<svg width="16" height="16" viewBox="0 0 16 16" fill="none" xmlns="http://www.w3.org/2000/svg">
<path d="M9 1.25C9 0.75 9.4375 0.375 9.90625 0.5C13.25 1.375 15.75 4.40625 15.75 8C15.75 12.2812 12.2812 15.75 8 15.75C3.71875 15.7812 0.25 12.3438 0.25 8.0625C0.21875 4.4375 2.6875 1.375 6.03125 0.5C6.53125 0.375 7 0.75 7 1.25V1.75C7 2.09375 6.75 2.375 6.4375 2.46875C4 3.15625 2.25 5.375 2.25 8C2.25 11.1875 4.8125 13.75 8 13.75C11.1562 13.75 13.75 11.1875 13.75 8C13.75 5.375 11.9688 3.15625 9.53125 2.46875C9.21875 2.375 9 2.09375 9 1.75V1.25Z" fill="#8DBCC7"/>
</svg>
